<?xml version="1.0" standalone="no"?>
<!DOCTYPE svg PUBLIC "-//W3C//DTD SVG 20010904//EN"
 "http://www.w3.org/TR/2001/REC-SVG-20010904/DTD/svg10.dtd">
<svg version="1.0" xmlns="http://www.w3.org/2000/svg"
 width="500.000000pt" height="500.000000pt" viewBox="0 0 500.000000 500.000000"
 preserveAspectRatio="xMidYMid meet">
<metadata>
Created by potrace 1.14, written by Peter Selinger 2001-2017
</metadata>
<g transform="translate(0.000000,500.000000) scale(0.100000,-0.100000)"
fill="#000000" stroke="none">
<path d="M1905 4983 c-29 -8 -75 -41 -115 -83 -19 -21 -62 -66 -94 -101 -32
-35 -107 -116 -166 -179 -59 -63 -119 -128 -134 -145 -49 -54 -219 -237 -287
-309 -36 -39 -78 -84 -93 -101 -15 -16 -69 -74 -119 -129 -51 -54 -103 -110
-116 -125 -13 -14 -47 -51 -75 -81 -66 -71 -298 -321 -311 -336 -37 -40 -231
-250 -285 -307 -36 -38 -75 -85 -87 -105 -38 -62 -31 -133 43 -480 36 -169 68
-316 70 -327 2 -11 29 -135 60 -275 30 -140 58 -268 60 -285 3 -16 10 -48 16
-70 5 -22 12 -51 14 -65 17 -99 86 -385 99 -409 8 -17 30 -41 49 -56 18 -14
269 -120 557 -235 288 -116 533 -214 544 -219 11 -6 146 -60 300 -121 154 -61
289 -115 300 -120 11 -5 101 -41 200 -81 99 -39 194 -77 210 -84 17 -8 105
-43 196 -79 229 -91 270 -88 379 22 51 51 280 270 355 337 17 15 92 87 169
159 76 72 146 138 156 146 9 8 77 72 151 141 74 70 150 141 169 159 19 18 89
83 155 145 66 62 136 127 155 145 19 18 96 90 170 160 74 70 158 148 185 173
181 164 215 210 215 291 -1 70 -30 114 -140 216 -57 52 -121 111 -142 131 -21
20 -77 72 -125 115 -88 81 -108 99 -204 188 -196 182 -277 256 -301 277 l-27
24 70 170 c39 94 77 185 85 203 29 66 45 104 182 437 151 368 158 393 120 469
-26 50 -60 81 -111 100 -23 9 -208 63 -412 122 -203 58 -408 117 -455 131 -47
14 -114 33 -150 43 -36 10 -135 38 -220 63 -293 86 -685 199 -750 217 -123 34
-335 98 -379 114 -42 16 -95 19 -136 9z m550 -545 c94 -28 184 -53 200 -58 30
-7 368 -106 605 -175 69 -20 132 -38 140 -40 49 -11 656 -190 663 -195 7 -6
-149 -401 -199 -504 -8 -16 -14 -33 -14 -37 0 -5 -12 -34 -26 -66 -14 -32 -30
-67 -34 -78 -5 -11 -41 -99 -81 -195 -99 -237 -101 -289 -13 -382 22 -24 62
-63 89 -87 45 -39 143 -129 329 -302 34 -31 75 -69 91 -84 17 -15 74 -68 129
-118 54 -51 117 -109 140 -129 l41 -37 -40 -37 c-22 -20 -94 -87 -160 -149
-66 -62 -136 -127 -155 -145 -19 -18 -91 -85 -160 -150 -69 -65 -141 -132
-160 -150 -19 -18 -96 -89 -170 -159 -73 -69 -163 -154 -200 -187 -36 -34 -83
-79 -106 -100 -206 -194 -277 -259 -283 -262 -5 -2 -51 197 -95 413 -3 11 -41
189 -86 395 -45 206 -85 395 -90 420 -5 25 -19 88 -30 140 -12 52 -23 106 -26
120 -3 13 -12 56 -20 95 -9 38 -27 121 -40 184 -13 63 -36 167 -50 230 -14 64
-28 125 -30 136 -2 11 -12 61 -23 110 -55 254 -132 612 -135 630 -3 11 -23
106 -46 210 -23 105 -44 201 -46 215 -3 14 -7 33 -10 42 -3 10 -7 29 -10 42
-2 13 -16 78 -29 143 -44 202 -75 351 -75 358 0 4 10 3 23 -1 12 -4 99 -29
192 -56z m-569 -268 c3 -19 8 -38 10 -41 2 -3 6 -19 8 -35 3 -16 8 -38 10 -49
13 -57 35 -164 40 -185 4 -24 42 -202 52 -245 2 -11 6 -29 8 -40 3 -11 16 -74
31 -140 14 -66 64 -298 111 -515 47 -217 96 -444 109 -505 13 -60 26 -122 29
-138 3 -15 7 -35 10 -45 3 -9 7 -28 10 -42 2 -14 16 -79 31 -145 14 -66 28
-131 31 -145 3 -14 34 -160 70 -325 35 -165 66 -309 68 -320 4 -19 34 -153 41
-185 2 -8 11 -51 20 -95 9 -44 19 -89 21 -100 3 -11 19 -87 38 -170 18 -82 32
-151 31 -152 -1 -3 -529 207 -570 226 -11 5 -132 55 -270 110 -592 236 -1080
433 -1084 436 -2 2 -16 64 -31 137 -21 102 -93 436 -145 678 -2 8 -17 79 -34
158 -17 78 -45 206 -62 285 -17 78 -35 162 -40 186 -10 47 -9 49 51 112 14 14
62 66 108 116 45 49 99 108 120 130 20 22 64 69 96 104 33 35 89 96 125 135
95 101 197 211 250 269 45 49 263 284 347 375 23 25 56 61 74 80 75 81 156
168 199 214 l46 49 18 -74 c9 -41 20 -90 23 -109z"/>
</g>
</svg>
